# xmcd
#
# Track frame offsets:
#       150
#       17378
#       32990
#       47971
#       62768
#       74876
#       92066
#       101360
#       119223
#       128866
#
# Disc length: 1948 seconds
#
# Revision: 0
# Processed by: cddbd v1.4PL0 Copyright (c) Steve Scherf et al.
# Submitted via: CD-DA_X-Tractor v0.23
#
DISCID=93079a0a
DTITLE=David Allan Coe - Dirty
DYEAR=1979
DGENRE=
TTITLE0=Nothin Sacred
TTITLE1=Pussy Whipped Again
TTITLE2=Cum Stain on the Pillow
TTITLE3=Linda Lovelace
TTITLE4=Fuck Aneta Briant
TTITLE5=Jimmy Buffett
TTITLE6=Whip and Things
TTITLE7=Rails
TTITLE8=Masterbation Blues
TTITLE9=Tack01
EXTD=
EXTT0=
EXTT1=
EXTT2=
EXTT3=
EXTT4=
EXTT5=
EXTT6=
EXTT7=
EXTT8=
EXTT9=
PLAYORDER=
